<?xml version="1.0" encoding="utf-8"?>
<!-- Generator: Adobe Illustrator 21.0.2, SVG Export Plug-In . SVG Version: 6.00 Build 0)  -->
<svg version="1.1" id="Layer_1" xmlns="http://www.w3.org/2000/svg" xmlns:xlink="http://www.w3.org/1999/xlink" x="0px" y="0px"
	 viewBox="0 0 5000 5000" style="enable-background:new 0 0 5000 5000;" xml:space="preserve">
<style type="text/css">
	.st0{fill:#BD4E4E;}
</style>
<g>
	<polygon class="st0" points="1594.9,4898.9 1594.2,4899.2 1575.5,4697.2 1538.9,4713.5 1520.9,4930.3 1520.3,4930.6 1500.2,4730.8 
		1463.2,4747.2 1490.2,5000 1542.4,4976.8 1555.9,4829.7 1556.5,4829.4 1570,4964.5 1620.5,4942 1647.4,4665.2 1614.2,4680 	"/>
	<path class="st0" d="M1732.1,4627.6l-38.7,282l34.9-15.5l6.6-51l46.6-20.8l6.5,45.1l38.4-17.1l-38.7-247.5L1732.1,4627.6z
		 M1739.7,4805l18-141.9l0.7-0.3l18,125.9L1739.7,4805z"/>
	<polygon class="st0" points="1886.1,4823.7 1924.1,4806.8 1924.1,4542 1886.1,4558.9 	"/>
	<polygon class="st0" points="1982.9,4553.7 2022.6,4536 2022.6,4762.9 2060.7,4746 2060.7,4519.1 2100.3,4501.4 2100.3,4463.6 
		1982.9,4515.9 	"/>
	<polygon class="st0" points="2377.8,4550.3 2377.1,4550.6 2358.5,4348.6 2321.9,4365 2303.9,4581.7 2303.2,4582 2283.2,4382.2 
		2246.2,4398.7 2273.1,4651.4 2325.3,4628.2 2338.8,4481.1 2339.4,4480.8 2352.9,4615.9 2403.4,4593.4 2430.4,4316.7 2397.2,4331.4 
			"/>
	<polygon class="st0" points="2572.7,4366.7 2529.5,4386 2529.5,4272.5 2491.5,4289.4 2491.5,4554.2 2529.5,4537.2 2529.5,4423.8 
		2572.7,4404.5 2572.7,4518 2611.4,4500.8 2611.4,4236 2572.7,4253.3 	"/>
	<path class="st0" d="M2709.9,4192.2l-38.7,282l34.9-15.5l6.6-51l46.6-20.8l6.6,45.1l38.4-17.1l-38.7-247.5L2709.9,4192.2z
		 M2717.5,4369.6l18-141.9l0.7-0.3l18,125.9L2717.5,4369.6z"/>
	<polygon class="st0" points="2839.8,4172.2 2879.5,4154.5 2879.5,4381.4 2917.5,4364.5 2917.5,4137.6 2957.3,4119.9 2957.3,4082.1 
		2839.8,4134.4 	"/>
	<polygon class="st0" points="3016,4096 3030.5,4089.6 3020.5,4131.8 3036,4124.9 3052.6,4075.5 3052.6,4039.6 3016,4055.9 	"/>
	<path class="st0" d="M3186.3,4098.4c-24.9-12.8-32.5-23.7-32.5-43c0-18.9,6.9-29.2,19-34.5c12.1-5.4,19-1.3,19,17.6v11l36-16v-8.3
		c0-42.4-19-58.1-55.9-41.6c-37,16.5-56,49.1-56,91.5c0,30.3,10,47.7,41.8,64.2c24.9,12.7,32.5,23.7,32.5,43
		c0,18.9-7.6,29.1-19.7,34.5c-12.1,5.4-19.7,1.9-19.7-17v-18.9l-36,16v16.3c0,42.4,19.4,57.9,56.7,41.3
		c37.3-16.6,56.6-49.4,56.6-91.8C3228.1,4132.4,3218.1,4114.9,3186.3,4098.4z"/>
	<path class="st0" d="M3453.4,3979.5c-24.9-12.8-32.5-23.7-32.5-43c0-18.9,6.9-29.1,19-34.5c12.1-5.4,19-1.3,19,17.6v11l36-16v-8.3
		c0-42.4-19-58.1-55.9-41.6c-37,16.5-56,49.2-56,91.5c0,30.3,10,47.7,41.8,64.2c24.9,12.7,32.5,23.7,32.5,43
		c0,18.9-7.6,29.1-19.7,34.5c-12.1,5.4-19.7,1.9-19.7-17v-18.9l-36,16v16.3c0,42.4,19.4,58,56.6,41.3c37.3-16.6,56.7-49.4,56.7-91.8
		C3495.3,4013.5,3485.3,3996,3453.4,3979.5z"/>
	<path class="st0" d="M3612.8,3787.2c-37.3,16.6-56.7,49.4-56.7,91.8v137.7c0,42.4,19.4,57.9,56.7,41.3
		c37.3-16.6,56.6-49.4,56.6-91.8V3931l-35.9,16v37.8c0,18.9-7.6,29.1-19.7,34.5c-12.1,5.4-19.7,1.9-19.7-17v-143
		c0-18.9,7.6-29.5,19.7-34.8c12.1-5.4,19.7-1.6,19.7,17.3v28.4l35.9-16v-25.7C3669.4,3786.2,3650,3770.6,3612.8,3787.2z"/>
	<polygon class="st0" points="3815.9,3813.2 3772.7,3832.4 3772.7,3719 3734.7,3735.9 3734.7,4000.7 3772.7,3983.7 3772.7,3870.3 
		3815.9,3851 3815.9,3964.5 3854.6,3947.3 3854.6,3682.5 3815.9,3699.7 	"/>
	<path class="st0" d="M3979,3624.1c-37.3,16.6-57.7,49.9-57.7,92.3v137.7c0,42.4,20.4,57.5,57.7,40.9c37.3-16.6,57.7-49.9,57.7-92.2
		V3665C4036.7,3622.6,4016.4,3607.5,3979,3624.1z M3998.7,3822.2c0,18.9-7.6,29.5-19.7,34.9c-12.1,5.4-19.7,1.6-19.7-17.3v-143
		c0-18.9,7.6-29.5,19.7-34.8c12.1-5.4,19.7-1.6,19.7,17.3V3822.2z"/>
	<path class="st0" d="M4158,3544.4c-37.3,16.6-57.7,49.9-57.7,92.3v137.7c0,42.4,20.4,57.5,57.7,40.9c37.3-16.6,57.7-49.9,57.7-92.2
		v-137.7C4215.7,3543,4195.3,3527.8,4158,3544.4z M4177.7,3742.5c0,18.9-7.6,29.5-19.7,34.9c-12.1,5.4-19.7,1.6-19.7-17.3v-143
		c0-18.9,7.6-29.5,19.7-34.8c12.1-5.4,19.7-1.6,19.7,17.3V3742.5z"/>
	<polygon class="st0" points="4320.4,3475.1 4282.3,3492.1 4282.3,3756.8 4382.9,3712.1 4382.9,3674.2 4320.4,3702.1 	"/>
	<path class="st0" d="M4480.4,3400.9c-37,16.5-56,49.1-56,91.5v26.1l36-16v-28.8c0-18.9,6.9-29.2,19-34.5c12.1-5.4,19-1.3,19,17.6
		c0,25.3-4.8,44.9-21.8,78.9c-14.9,29.7-19.7,47.4-19.7,68.5c0,6.8,0.7,11.4,2.1,15.3l33.8-15.1c-1-4.4-1.3-9.2-1.3-14.1
		c0-17,4.5-31.9,19.3-60.4c18.7-35.5,25.6-59,25.6-87.4C4536.4,3400.2,4517.4,3384.5,4480.4,3400.9z"/>
	<polygon class="st0" points="4457.2,3679 4493.8,3662.7 4493.8,3622.6 4457.2,3638.9 	"/>
	<path class="st0" d="M2936.2,762.2c6.8,0,13.8-1.4,20.4-4.3l91.5-40.6v625.6c0,110.4,44.6,163.6,82,188.7
		c28.7,19.3,63.6,29.1,101.4,29.1c32.2,0,66.7-7,101.5-21.2c23.4-8.9,141.9-65,141.9-283.4V682.4c0-158.2,72.8-187.7,74.5-188.4
		c1.4-0.4,2.8-0.9,4.2-1.5c22.9-9.3,65.8-21.9,96.2-1.4c32.4,21.8,50.2,79.8,50.2,163.3v399c0,110.4,44.6,163.6,82,188.8
		c28.8,19.3,63.6,29,101.4,29c32.2,0,66.7-7,101.6-21.2c17.4-6.7,85.9-38.9,120.9-142c31.2,16.8,64.3,25.8,98,25.8
		c27.8,0,55.9-5.7,83.4-17.3c78.7-28.5,222.9-135,216.1-338.9c-1-27.8-24.8-49.1-52.1-48.7c-27.9,0.9-49.6,24.3-48.7,52.1
		c6.2,181.4-144.3,238.7-150.4,241c-1,0.4-2,0.8-3,1.2c-45.8,19.6-82.8,5.7-105.6-9.4c-51.8-34.2-85.2-106.3-85.2-183.8V676.1
		c27.7,15.1,61.7,25.1,102.8,25.5c17.5,1.6,77,3.2,134.3-41.8c59.3-46.5,94.7-125.3,105.2-234.3c0-0.3,0-0.6,0.1-0.9
		c12.5-123.5-34.2-186-75.7-216.7c-68.8-50.9-166.2-45.5-232.3-17.6c-22.5,9.1-135.3,64.8-135.3,269.8v76.5c0,0.7,0,1.4,0,2.2v291
		c0,76.2,23.5,147.5,63.5,202.4c-16.5,101.3-68.6,122.3-69.6,122.8c-1.4,0.4-2.8,0.9-4.2,1.5c-43.7,17.8-84.4,18.5-109,2
		c-31-20.8-37.5-68.6-37.5-105.1v-399c0-121.6-31.9-204.7-94.8-247C3654.9,373,3587.4,370,3516,399c-7,2.7-22.7,9.8-41.1,24.1V49.4
		c0-27.8-22.6-50.4-50.4-50.4c-27.8,0-50.4,22.6-50.4,50.4v1206.7c0,158.3-72.8,187.7-74.5,188.4c-1.4,0.4-2.8,0.9-4.2,1.5
		c-43.7,17.8-84.4,18.5-109,2c-31-20.8-37.5-68.6-37.5-105.1V672.6l147.1-65.3c25.5-11.3,37-41.1,25.7-66.5
		c-11.3-25.5-41.1-37-66.5-25.6l-106.2,47.1V201.1c0-27.8-22.6-50.4-50.4-50.4s-50.4,22.6-50.4,50.4V607l-132.4,58.7
		c-25.5,11.3-37,41.1-25.7,66.5C2898.4,751.1,2916.8,762.2,2936.2,762.2z M4058.4,460.2c0-145.8,68.1-174.7,69.6-175.4
		c1.3-0.4,2.6-0.9,3.9-1.5c39.7-16.8,98.2-20.2,133.2,5.7c29.8,22,41.6,64.5,35.2,126.3c0,0.5-0.1,1-0.1,1.5
		c-7.6,77.5-30.2,133.7-65.4,162.3c-31,25.3-63.1,22.2-63.5,22.1c-2.4-0.4-4.9-0.5-7.3-0.5c-75.2,0-99.8-53.3-105.7-70.2V460.2z"/>
	<path class="st0" d="M4475.4,1190.1l-1877,832.6c-25.5,11.3-37,41.1-25.7,66.5c8.3,18.8,26.8,30,46.1,30c6.8,0,13.8-1.4,20.4-4.3
		l1877-832.6c25.5-11.3,37-41.1,25.7-66.5C4530.6,1190.3,4500.7,1178.8,4475.4,1190.1z"/>
	<path class="st0" d="M2083.2,2306.4c-11.3-25.5-41.1-36.9-66.5-25.6L1112.1,2682c-33.6,14.9-72,30.9-113.2,48
		c-10.6,4.4-21.3,8.9-32.3,13.4V1639.8l223.8-99.3v567.6c0,121.6,31.9,204.7,94.8,247c27.9,18.8,60.7,28.2,96.3,28.2
		c29.7,0,61.4-6.6,93.9-19.7c17.8-6.8,90.1-40.9,124.1-152.1c28.6,18.9,63,28.5,100.4,28.5c32.2,0,66.7-7,101.5-21.2
		c18.1-6.9,93.1-42.5,126.1-159.5c3.3,2.6,6.3,5.5,9.7,7.8c27.9,18.8,60.7,28.2,96.3,28.2c29.7,0,61.4-6.6,93.8-19.7
		c23.4-8.9,141.9-65,141.9-283.4c0-27.8-22.6-50.4-50.4-50.4c-27.9,0-50.4,22.6-50.4,50.4c0,158.3-72.8,187.7-74.5,188.4
		c-1.4,0.4-2.8,0.9-4.2,1.5c-22.9,9.3-65.8,21.9-96.2,1.4c-32.4-21.8-50.2-79.8-50.2-163.3v-457.6c0-158.2,72.8-187.7,74.5-188.4
		c1.4-0.4,2.8-0.9,4.2-1.5c22.9-9.3,65.7-21.9,96.2-1.4c32.4,21.8,50.2,79.8,50.2,163.3c0,27.8,22.6,50.4,50.4,50.4
		c27.8,0,50.4-22.6,50.4-50.4c0-121.6-31.9-204.7-94.8-247c-51.2-34.4-118.7-37.4-190.1-8.4c-22.4,8.5-131.4,60.6-141,256.1
		c-0.6,3-0.9,6.1-0.9,9.3v590.9c0,158.3-72.8,187.7-74.5,188.4c-1.4,0.4-2.8,0.9-4.2,1.5c-43.7,17.8-84.4,18.5-109,2
		c-31-20.8-37.5-68.6-37.5-105.1v-703.8c0-27.8-22.6-50.4-50.4-50.4c-27.8,0-50.4,22.6-50.4,50.4v761.7
		c0,158.3-72.8,187.7-74.5,188.4c-1.4,0.4-2.8,0.9-4.2,1.5c-22.9,9.3-65.8,21.9-96.2,1.4c-32.4-21.8-50.2-79.8-50.2-163.3V1463
		c0-17.1-8.6-33-22.9-42.3c-14.3-9.3-32.4-10.7-47.9-3.8l-253.8,112.6v-334.7l315.5-140c82.4-37.3,321.2-114.9,434.8-27.5
		c22.1,17,53.8,12.9,70.7-9.2c17-22.1,12.9-53.7-9.2-70.7c-184.5-141.8-523.6,9.1-537.5,15.5l-345.2,153.1
		c-18.2,8.1-30,26.2-30,46.1v445.9c0,0,0,0.1,0,0.1v1178.2c-212.4,92.9-442.5,214.4-497.2,382.7c-70.7,217.7,49.3,346.5,121.6,383.6
		c50.9,27.8,96.3,38,135.5,38c47,0,85.2-14.7,113.4-31.5c156.4-92.7,227.6-376,227.6-599.9v-106.5c24.6-10.4,48.4-20.3,71-29.7
		c42-17.4,81.1-33.7,115.4-48.9l904.5-401.2C2083,2361.6,2094.5,2331.8,2083.2,2306.4z M865.8,2959.3
		c0,197.5-62.4,444.5-178.2,513.2c-43.2,25.6-91.9,22.9-150.3-8.9c-1.4-0.7-135-72-72.9-263.4c39-119.9,223.8-223,401.3-303.4
		V2959.3z"/>
	<path class="st0" d="M2417,1941.2c27.8,0,50.4-22.6,50.4-50.4v-762c0-158.2,72.9-187.7,74.5-188.4c1.4-0.4,2.8-0.9,4.2-1.5
		c22.9-9.3,65.7-21.9,96.2-1.4c32.4,21.8,50.2,79.8,50.2,163.4c0,2.5-3.3,248.9-137,282c-26.8,6.6-43.3,33.6-37,60.4
		c1.9,8.3,49,203.3,190.3,273.7c33.7,16.8,69.3,25.2,106.8,25.2c40.5,0,82.9-9.8,127.1-29.4c25.5-11.3,37-41.1,25.7-66.5
		c-11.3-25.5-41.2-37-66.5-25.6c-57,25.3-105.3,27.3-147.8,6.3c-66.7-33-105.8-114.9-124.2-165c162-85.3,163.6-348.9,163.5-361
		c0-121.6-31.9-204.7-94.8-247c-51.2-34.4-118.7-37.4-190.1-8.4c-7,2.7-22.7,9.8-41.1,24.1V496.2c0-27.9-22.6-50.4-50.4-50.4
		c-27.9,0-50.4,22.6-50.4,50.4v1394.5C2366.6,1918.6,2389.2,1941.2,2417,1941.2z"/>
	<path class="st0" d="M4653.4,2642.1c-0.9-27.8-24.6-49.4-52.1-48.7c-27.8,0.9-49.6,24.3-48.7,52.1c6.2,181.4-144.3,238.7-150.4,241
		c-1,0.4-2,0.8-3,1.2c-45.8,19.6-82.7,5.7-105.6-9.4c-51.8-34.2-85.2-106.3-85.2-183.8v-153.8c27.7,15.1,61.7,25.1,102.8,25.5
		c3.3,0.3,8,0.6,13.8,0.6c25.7,0,73.8-5.8,120.5-42.4c59.3-46.5,94.8-125.3,105.2-234.3c0-0.1,0-0.3,0-0.4
		c12.7-123.8-34.1-186.4-75.6-217.2c-68.8-50.9-166.2-45.5-232.3-17.6c-22.5,9.1-135.3,64.8-135.3,269.8v369.6
		c0,80.4,26,155.6,70.2,211.4c-36.1,98.4-96.1,123.7-98.1,124.5c-1.2,0.4-2.3,0.9-3.4,1.4c-57,25.3-105.3,27.3-147.8,6.3
		c-66.7-33-105.8-114.9-124.2-165.1c162-85.3,163.6-348.9,163.5-361c0-121.6-31.9-204.7-94.8-247c-51.2-34.4-118.7-37.4-190.1-8.5
		c-7,2.7-22.7,9.8-41.1,24.1v-342.2l874.6-388c25.5-11.3,37-41.1,25.7-66.5c-11.3-25.5-41.2-36.9-66.5-25.6l-903.7,400.9
		c-0.1,0-0.1,0.1-0.2,0.1l-0.7,0.3c-0.9,0.4-1.7,1-2.6,1.5c-2,1-3.9,2-5.7,3.3c-1.3,0.9-2.4,1.9-3.6,2.9c-1.3,1.1-2.7,2.1-3.8,3.4
		c-1.1,1.2-2.1,2.5-3.1,3.8c-1,1.3-2.1,2.5-3,3.9c-0.8,1.3-1.5,2.7-2.2,4.1c-0.8,1.5-1.6,3-2.3,4.5c-0.6,1.5-1,3.1-1.4,4.6
		c-0.5,1.6-1,3.1-1.3,4.7c-0.4,2.1-0.5,4.2-0.6,6.3c-0.1,1.1-0.3,2.1-0.3,3.2v0.8c0,0,0,0.1,0,0.1v618.7v590.9
		c0,158.3-72.8,187.7-74.5,188.4c-1.4,0.4-2.8,0.9-4.2,1.5c-43.7,17.8-84.4,18.5-109,2c-31-20.8-37.5-68.6-37.5-105.1v-720.9
		c0-27.9-22.6-50.4-50.4-50.4c-27.8,0-50.4,22.6-50.4,50.4v776.5c0,158.3-72.8,187.7-74.5,188.4c-1.4,0.4-2.8,0.9-4.2,1.5
		c-43.7,17.8-84.4,18.5-109,2c-31-20.8-37.5-68.6-37.5-105.1v-784.6c0-14.5-6.2-28.2-17-37.8c-10.8-9.6-25.1-14.1-39.6-12.3
		c-127.6,15.7-228.7,19.5-309.2,14.9c0.3-102.8-16.2-376.7-198-438.5c-87.2-29.7-164.9-13.5-213.1,44.4
		c-57.7,69.2-62,186.9-10.2,279.8c51,91.6,129.6,175.1,319.6,205.1v960.6c0,158.3-72.8,187.7-74.5,188.4c-1.4,0.4-2.8,0.9-4.2,1.5
		c-43.7,17.8-84.4,18.5-109,2c-31-20.8-37.5-68.6-37.5-105.1v-688.6l145.4-64.5c25.5-11.3,37-41.1,25.7-66.5
		c-11.3-25.5-41.1-37-66.5-25.6l-104.6,46.4v-193.1c0-27.9-22.6-50.4-50.4-50.4c-27.9,0-50.4,22.6-50.4,50.4v237.9l-134.1,59.5
		c-25.5,11.3-37,41.1-25.7,66.5c8.3,18.8,26.8,30,46.1,30c6.8,0,13.8-1.4,20.4-4.3l93.2-41.3v643.8c0,110.4,44.6,163.6,82,188.7
		c28.7,19.3,63.6,29.1,101.4,29.1c32.2,0,66.7-7,101.5-21.2c23.4-8.9,141.9-65,141.9-283.4v-950.4c74.3,3.8,161.9,1.2,265.7-9.5
		v745.7c0,4,0.6,7.9,1.5,11.7c7.2,90.5,46.6,136.7,80.5,159.5c28.7,19.3,63.5,29.1,101.4,29.1c32.2,0,66.6-7,101.5-21.2
		c17.7-6.7,89.3-40.4,123.5-150c28.7,19.2,63.3,28.8,101,28.8c32.2,0,66.6-7,101.5-21.2c23.4-8.9,141.9-65,141.9-283.4V2540
		c0-158.2,72.8-187.7,74.5-188.4c1.4-0.4,2.8-0.9,4.2-1.5c22.9-9.3,65.7-21.9,96.2-1.4c32.4,21.8,50.2,79.8,50.2,163.3
		c0,2.5-3.9,249.1-137,282c-26.8,6.6-43.3,33.6-37,60.4c1.9,8.3,49,203.4,190.3,273.7c33.7,16.8,69.4,25.2,106.8,25.2
		c40.2,0,82.5-9.7,126.5-29.1c15.6-6.4,91.4-42.6,141.9-150.3c30.5,15.9,62.7,24.4,95.6,24.4c27.8,0,55.9-5.7,83.4-17.3
		C4516,2952.6,4660.3,2846,4653.4,2642.1z M4208.3,2324.8c0-145.8,68.1-174.7,69.6-175.4c1.3-0.4,2.6-0.9,3.9-1.5
		c39.6-16.8,98.2-20.2,133.2,5.7c29.8,22,41.6,64.5,35.2,126.3c0,0.1,0,0.2,0,0.3c0,0.1,0,0.2,0,0.2c-7.5,78-30.1,134.5-65.5,163.3
		c-31,25.3-63.1,22.1-63.5,22.1c-2.4-0.4-4.9-0.5-7.3-0.5c-75,0-99.6-52.9-105.7-70.4V2324.8z M2290.8,2362.2
		c-30.7-55.1-30.9-129.6-0.4-166.1c12.7-15.3,30.6-22.9,53.3-22.9c14.6,0,31.2,3.2,49.8,9.5c104,35.3,128.1,224,129.5,331.5
		C2358.7,2484.1,2317.4,2410,2290.8,2362.2z"/>
	<path class="st0" d="M1560.8,3392.6c-87.8-15.5-150.9-50.9-187.5-105.1c-55.3-81.8-34.8-183.5-34.6-184.3c0.4-1.8,0.7-3.7,0.9-5.6
		c22.1-212.1,253.2-253,261.7-254.4c108.2-14.8,182.7,0.4,221.2,45.4c60.6,70.8,22.9,200.4,22.2,202.6c-8.1,26.6,6.9,54.7,33.5,62.9
		c26.7,8.2,54.8-6.8,63-33.4c2.3-7.4,54.8-183.8-41.6-297.2c-62.2-73.1-167.1-100.1-313.1-80.1c-109.1,17.5-321.5,111.4-346.9,341.3
		c-4.2,22.1-23.9,148.4,49.5,258.1c52.4,78.3,138,128.5,254.3,149.1c175.7,31.1,284.5,101.1,314.8,202.5
		c32.7,109.4-27.8,241.9-101.3,311.1c-116.3,109.6-256.5,159.6-340.7,121.4c-70.7-31.9-83.4-120.1-81.4-189.2
		c3.1-25.5,29.7-188.5,207.9-191.8c27.8-0.5,50-23.5,49.5-51.4c-0.5-27.8-24-50.3-51.4-49.5c-220.7,4.2-297,187.6-306.5,284.1
		c-0.1,1.1-0.2,2.2-0.2,3.3c-6.4,191,85.3,261.4,140.6,286.4c32.4,14.6,68.3,21.7,106.5,21.7c108.3,0,234.1-57.2,345-161.6
		c97.8-92.1,173.5-263.6,128.8-413.3C1925.4,3567.6,1833.3,3440.8,1560.8,3392.6z"/>
	<circle class="st0" cx="3265.3" cy="2050.8" r="59.7"/>
</g>
</svg>
